<svg width="122" height="122" viewBox="0 0 122 122" fill="none" xmlns="http://www.w3.org/2000/svg">
<g clip-path="url(#clip0_32_13)">
<path d="M53.4835 111.011C62.8962 96.8232 50.5363 68.8059 50.5363 68.8059C55.098 90.2206 42.2811 99.0393 42.2811 99.0393C51.1303 104.302 53.4835 111.011 53.4835 111.011Z" fill="url(#paint0_linear_32_13)"/>
<path d="M56.9257 79.9397C61.1371 92.292 57.1009 116.418 57.1009 116.418C59.0276 117.926 59.6597 123.614 59.6597 123.614C60.2232 117.72 63.9472 113.082 63.9472 113.082C64.229 84.9888 56.9257 79.9397 56.9257 79.9397Z" fill="url(#paint1_linear_32_13)"/>
<path d="M43.8271 62.0966C67.5569 71.8216 65.318 110.554 65.318 110.554C70.6488 104.233 79.0792 97.9122 79.0792 97.9122C74.7916 72.5603 55.4102 64.5564 55.4102 64.5564C67.3513 68.2804 72.4765 78.0435 72.4765 78.0435C63.277 52.5468 43.8271 62.0966 43.8271 62.0966Z" fill="url(#paint2_linear_32_13)"/>
<path d="M41.6567 86.0549C41.6567 86.0549 2.89389 71.3114 11.8878 35.9146C11.8878 35.9146 -21.2624 73.7026 41.6567 86.0549Z" fill="url(#paint3_linear_32_13)"/>
<path d="M41.4511 12.2533C27.6823 12.2533 -7.56978 43.7129 31.6195 72.6441C31.6195 72.6441 6.33608 39.5015 41.4511 12.2533Z" fill="url(#paint4_linear_32_13)"/>
<path d="M43.9794 -1.54594C58.3575 15.2614 9.19191 33.4929 28.9465 62.6373C19.7394 37.7347 64.5869 16.3885 43.9794 -1.54594Z" fill="url(#paint5_linear_32_13)"/>
<path d="M110.12 35.9146C119.106 71.3114 80.3433 86.0549 80.3433 86.0549C143.262 73.7026 110.12 35.9146 110.12 35.9146Z" fill="url(#paint6_linear_32_13)"/>
<path d="M93.0535 62.6373C112.808 33.4929 63.6426 15.2614 78.0206 -1.54594C57.4131 16.3885 102.261 37.7347 93.0535 62.6373Z" fill="url(#paint7_linear_32_13)"/>
<path d="M80.549 12.2533C115.664 39.5015 90.3805 72.6441 90.3805 72.6441C129.57 43.7129 94.3177 12.2533 80.549 12.2533Z" fill="url(#paint8_linear_32_13)"/>
</g>
<defs>
<linearGradient id="paint0_linear_32_13" x1="4258.85" y1="68175" x2="-8428.29" y2="44714.3" gradientUnits="userSpaceOnUse">
<stop stop-color="#261362"/>
<stop offset="1" stop-color="#F900B7"/>
</linearGradient>
<linearGradient id="paint1_linear_32_13" x1="-2228.34" y1="106930" x2="-13104" y2="104276" gradientUnits="userSpaceOnUse">
<stop stop-color="#261362"/>
<stop offset="1" stop-color="#F900B7"/>
</linearGradient>
<linearGradient id="paint2_linear_32_13" x1="6755.82" y1="79566.2" x2="281.922" y2="39287.4" gradientUnits="userSpaceOnUse">
<stop stop-color="#261362"/>
<stop offset="1" stop-color="#F900B7"/>
</linearGradient>
<linearGradient id="paint3_linear_32_13" x1="-243.213" y1="47924.9" x2="13509.3" y2="15572.3" gradientUnits="userSpaceOnUse">
<stop stop-color="#261362"/>
<stop offset="1" stop-color="#F900B7"/>
</linearGradient>
<linearGradient id="paint4_linear_32_13" x1="-2820.68" y1="30509.6" x2="18124.7" y2="14637.3" gradientUnits="userSpaceOnUse">
<stop stop-color="#261362"/>
<stop offset="1" stop-color="#F900B7"/>
</linearGradient>
<linearGradient id="paint5_linear_32_13" x1="1729.3" y1="16012.2" x2="15227.6" y2="10291.9" gradientUnits="userSpaceOnUse">
<stop stop-color="#261362"/>
<stop offset="1" stop-color="#F900B7"/>
</linearGradient>
<linearGradient id="paint6_linear_32_13" x1="38137.1" y1="52678.2" x2="51861.6" y2="20316.5" gradientUnits="userSpaceOnUse">
<stop stop-color="#261362"/>
<stop offset="1" stop-color="#F900B7"/>
</linearGradient>
<linearGradient id="paint7_linear_32_13" x1="17825.8" y1="15967.3" x2="31323.1" y2="10245.5" gradientUnits="userSpaceOnUse">
<stop stop-color="#261362"/>
<stop offset="1" stop-color="#F900B7"/>
</linearGradient>
<linearGradient id="paint8_linear_32_13" x1="20437.5" y1="37986" x2="41382.9" y2="22113.6" gradientUnits="userSpaceOnUse">
<stop stop-color="#261362"/>
<stop offset="1" stop-color="#F900B7"/>
</linearGradient>
<clipPath id="clip0_32_13">
<rect width="122" height="122" fill="white"/>
</clipPath>
</defs>
</svg>
