<svg width="100" height="100" viewBox="0 0 100 100" fill="none" xmlns="http://www.w3.org/2000/svg">
<path d="M25 6.11111C18.6111 9.72222 12.5 16.2963 9.62961 22.5926C7.49998 27.2222 7.03701 29.6296 7.03701 35.8333L6.94442 43.4259L3.98146 45.0926C2.31479 46.0185 0.925903 46.8519 0.925903 47.037C0.925903 47.2222 1.94442 48.2407 3.24072 49.2593C6.20368 51.5741 6.20368 52.5926 3.24072 53.3333C0.277755 54.0741 0.277755 54.3519 3.88887 58.0556L6.85183 61.1111L3.88887 62.1296C2.2222 62.6852 0.925903 63.4259 0.925903 63.7963C0.925903 65.463 4.7222 67.5926 12.3148 70.2778C25 74.6296 42.6852 86.2037 46.8518 92.7778C49.6296 97.1296 49.0741 97.3148 53.9815 90.2778C54.9074 88.9815 60.7407 84.6296 66.8518 80.5556C75.1852 75.0926 80.2778 72.5 86.7592 70.2778C97.6852 66.6667 101.111 63.7037 95.8333 62.4074C94.537 62.1296 93.5185 61.2963 93.5185 60.7407C93.5185 60.0926 94.537 58.6111 95.8333 57.4074C97.1296 56.2037 98.1481 54.9074 98.1481 54.537C98.1481 54.1667 97.1296 53.6111 95.8333 53.3333C94.537 52.963 93.5185 52.3148 93.5185 51.8519C93.5185 51.3889 94.537 50.2778 95.8333 49.4444C98.7963 47.5 98.7037 47.1296 95.4629 45.2778C93.0555 43.8889 92.8703 43.3333 92.3148 36.0185C91.6666 25.5556 89.6296 20.463 83.9815 14.2593C80 9.90741 71.3889 3.7037 69.2592 3.7037C68.9815 3.7037 68.5185 10.6482 68.3333 19.1667C68.2407 27.7778 67.7778 35.1852 67.3148 35.8333C66.8518 36.6667 65 36.1111 60.5555 34.0741C52.2222 30.1852 46.4815 30.1852 38.6111 34.0741C34.8457 35.9877 32.6234 36.6358 31.9444 36.0185C31.3889 35.463 30.8333 28.1481 30.6481 19.4444C30.5555 10.7407 30.0926 3.7037 29.7222 3.7037C29.4444 3.7037 27.3148 4.81482 25 6.11111Z" fill="url(#paint0_linear_147_65)"/>
<defs>
<linearGradient id="paint0_linear_147_65" x1="15.5" y1="16" x2="79" y2="77" gradientUnits="userSpaceOnUse">
<stop stop-color="#00C2FF"/>
<stop offset="0.432292" stop-color="#00659E"/>
<stop offset="1" stop-color="#000034"/>
</linearGradient>
</defs>
</svg>
